HIERARCHY
ROOT Hips
{
	OFFSET 0.000000 0.000000 0.000000
	CHANNELS 6 Xposition Yposition Zposition Xrotation Yrotation Zrotation
	JOINT LeftUpLeg_virtual
	{
		OFFSET 0.000000 0.000000 0.000000
		CHANNELS 3 Xrotation Yrotation Zrotation
		JOINT LeftUpLeg
		{
			OFFSET 10.205400 -3.823500 0.155100
			CHANNELS 3 Xrotation Yrotation Zrotation
			JOINT LeftLeg
			{
				OFFSET 0.708757 -12.982077 0.567790
				CHANNELS 3 Xrotation Yrotation Zrotation
				JOINT LeftFoot
				{
					OFFSET -0.708756 -10.717838 -2.184338
					CHANNELS 3 Xrotation Yrotation Zrotation
					JOINT LeftToeBase
					{
						OFFSET 0.108149 -7.191104 7.560241
						CHANNELS 3 Xrotation Yrotation Zrotation
						JOINT LeftToe_End
						{
							OFFSET 0.070230 0.081724 4.490308
							CHANNELS 3 Xrotation Yrotation Zrotation
							End Site
							{
								OFFSET 0 0 0
							}
						}
					}
				}
			}
		}
	}
	JOINT RightUpLeg_virtual
	{
		OFFSET 0.000000 0.000000 0.000000
		CHANNELS 3 Xrotation Yrotation Zrotation
		JOINT RightUpLeg
		{
			OFFSET -10.205400 -3.823500 0.005500
			CHANNELS 3 Xrotation Yrotation Zrotation
			JOINT RightLeg
			{
				OFFSET -0.708756 -12.982134 0.610632
				CHANNELS 3 Xrotation Yrotation Zrotation
				JOINT RightFoot
				{
					OFFSET 0.708754 -10.717769 -1.945823
					CHANNELS 3 Xrotation Yrotation Zrotation
					JOINT RightToeBase
					{
						OFFSET -0.108140 -7.191069 7.372968
						CHANNELS 3 Xrotation Yrotation Zrotation
						JOINT RightToe_End
						{
							OFFSET -0.070227 0.081735 4.479403
							CHANNELS 3 Xrotation Yrotation Zrotation
							End Site
							{
								OFFSET 0 0 0
							}
						}
					}
				}
			}
		}
	}
	JOINT Spine_virtual
	{
		OFFSET 0.000000 0.000000 0.000000
		CHANNELS 3 Xrotation Yrotation Zrotation
		JOINT Spine
		{
			OFFSET 0.000000 6.876099 0.125700
			CHANNELS 3 Xrotation Yrotation Zrotation
			JOINT Spine1
			{
				OFFSET 0.000000 5.730043 0.104720
				CHANNELS 3 Xrotation Yrotation Zrotation
				JOINT Spine1_split
				{
					OFFSET 0.000000 5.730043 0.104720
					CHANNELS 3 Xrotation Yrotation Zrotation
					JOINT Spine2
					{
						OFFSET 0.000000 5.730043 0.104720
						CHANNELS 3 Xrotation Yrotation Zrotation
						JOINT Neck_virtual
						{
							OFFSET 0.000000 0.000000 0.000000
							CHANNELS 3 Xrotation Yrotation Zrotation
							JOINT Neck
							{
								OFFSET 0.000000 10.314075 0.188496
								CHANNELS 3 Xrotation Yrotation Zrotation
								JOINT Head
								{
									OFFSET 0.000000 7.643700 -2.377400
									CHANNELS 3 Xrotation Yrotation Zrotation
									JOINT HeadTop_End
									{
										OFFSET 0.000000 43.788605 -13.619600
										CHANNELS 3 Xrotation Yrotation Zrotation
										End Site
										{
											OFFSET 0 0 0
										}
									}
								}
							}
						}
						JOINT LeftShoulder_virtual
						{
							OFFSET 0.000000 0.000000 0.000000
							CHANNELS 3 Xrotation Yrotation Zrotation
							JOINT LeftShoulder
							{
								OFFSET 2.196100 4.412489 0.087492
								CHANNELS 3 Xrotation Yrotation Zrotation
								JOINT LeftShoulder_split
								{
									OFFSET 2.196100 4.412489 0.087492
									CHANNELS 3 Xrotation Yrotation Zrotation
									JOINT LeftArm
									{
										OFFSET 8.771219 -2.981674 -0.026999
										CHANNELS 3 Xrotation Yrotation Zrotation
										JOINT LeftForeArm
										{
											OFFSET 8.512804 0.000000 -0.000000
											CHANNELS 3 Xrotation Yrotation Zrotation
											JOINT LeftHand
											{
												OFFSET 18.484802 0.000000 -0.000000
												CHANNELS 3 Xrotation Yrotation Zrotation
												End Site
												{
													OFFSET 0 0 0
												}
											}
										}
									}
								}
							}
						}
						JOINT RightShoulder_virtual
						{
							OFFSET 0.000000 0.000000 0.000000
							CHANNELS 3 Xrotation Yrotation Zrotation
							JOINT RightShoulder
							{
								OFFSET -2.196100 4.412496 0.070690
								CHANNELS 3 Xrotation Yrotation Zrotation
								JOINT RightShoulder_split
								{
									OFFSET -2.196100 4.412496 0.070690
									CHANNELS 3 Xrotation Yrotation Zrotation
									JOINT RightArm
									{
										OFFSET -8.771282 -2.981682 -0.094208
										CHANNELS 3 Xrotation Yrotation Zrotation
										JOINT RightForeArm
										{
											OFFSET -8.494598 0.000000 0.000000
											CHANNELS 3 Xrotation Yrotation Zrotation
											JOINT RightHand
											{
												OFFSET -18.483803 0.000000 0.000001
												CHANNELS 3 Xrotation Yrotation Zrotation
												End Site
												{
													OFFSET 0 0 0
												}
											}
										}
									}
								}
							}
						}
					}
				}
			}
		}
	}
}
MOTION
Frames: 9
Frame Time: 0.03333333
-0.320719 32.594563 0.455744 0.000000 0.000000 0.000000 -2.391739 -0.036695 -0.648970 -6.065560 3.765249 11.024677 25.766474 3.694799 1.617952 -20.957438 3.952986 -14.779213 2.848038 0.503897 -1.428457 0.000000 0.000000 0.000000 -2.138319 0.303022 -0.665776 0.554912 1.537805 -4.031465 22.406914 0.836227 -1.697522 -20.492395 -2.270867 7.164502 5.643448 -0.016232 -0.045635 0.000000 0.000000 0.000000 -2.157023 -1.280033 -0.859051 0.845118 -1.055714 0.043865 -1.123944 -0.306943 0.599990 1.193736 0.143571 -0.004712 0.000000 0.000000 0.000000 -1.598728 -0.018778 0.534932 -0.370109 0.560086 -0.996484 4.500847 -2.332791 2.535135 0.000000 0.000000 0.000000 -1.586305 0.140890 0.293420 1.360187 -10.758768 -10.356040 -2.869951 0.549343 -1.935129 20.535346 -21.717387 -65.751253 -1.129503 -19.513591 0.812723 0.000000 0.000000 0.000000 -1.141550 0.144567 0.490656 1.639662 5.556131 10.920648 -0.654648 3.129957 -1.960269 6.094545 23.462299 66.361654 0.572479 16.333257 0.632218 0.000000 0.000000 0.000000 
-0.216312 32.657784 0.476706 0.000000 0.000000 0.000000 -2.294047 -0.017432 -0.627302 -5.990424 3.391048 10.926221 25.619934 3.863014 1.651015 -20.830007 4.153770 -14.381809 2.737091 0.542003 -1.474361 0.000000 0.000000 0.000000 -2.097673 0.183153 -0.665096 0.982111 1.477268 -4.111587 21.685692 0.830664 -1.888035 -19.975773 -2.191773 6.711158 4.280992 -0.176110 0.219124 0.000000 0.000000 0.000000 -1.962050 -1.380012 -0.910868 0.594621 -0.985399 0.111937 -1.077464 -0.317150 0.604433 1.191583 0.323390 0.076231 0.000000 0.000000 0.000000 -1.599008 -0.038005 0.553332 -0.401774 0.655722 -0.999691 4.431989 -2.351327 2.421440 0.000000 0.000000 0.000000 -1.577404 0.145864 0.298853 1.371527 -10.812239 -10.461589 -2.785057 0.517861 -1.868277 20.544374 -21.806321 -65.771313 -1.112457 -19.553845 0.701935 0.000000 0.000000 0.000000 -1.119771 0.139712 0.486725 1.639700 5.713949 10.992097 -0.586552 3.223749 -1.969850 6.261042 23.651284 66.192531 0.621285 16.297972 0.636672 0.000000 0.000000 0.000000 
-0.127903 32.725471 0.503841 0.000000 0.000000 0.000000 -2.361097 -0.033984 -0.609249 -6.017107 3.251809 10.716378 25.423636 4.186803 1.743880 -20.544611 4.232073 -13.886684 2.610725 0.604990 -1.391295 0.000000 0.000000 0.000000 -2.058478 0.152389 -0.694807 1.615991 1.371121 -4.227356 20.876740 0.817147 -2.108340 -20.346266 -1.941890 5.628233 3.735055 -0.206641 0.343491 0.000000 0.000000 0.000000 -1.738636 -1.477677 -0.985390 0.449588 -0.884598 0.244995 -0.990813 -0.309404 0.584299 1.200899 0.333119 0.086297 0.000000 0.000000 0.000000 -1.548420 -0.051761 0.548642 -0.400225 0.804807 -1.055211 4.154589 -2.338815 2.337908 0.000000 0.000000 0.000000 -1.540219 0.160735 0.274937 1.382422 -10.916112 -10.584024 -2.745414 0.682434 -1.769015 20.477365 -21.819027 -65.781033 -1.068373 -19.771926 0.587863 0.000000 0.000000 0.000000 -1.060741 0.131827 0.454517 1.679159 5.845652 11.039385 -0.453641 3.336779 -2.019700 6.586148 24.075698 65.758295 0.700790 16.425377 0.620290 0.000000 0.000000 0.000000 
-0.053742 32.764919 0.515127 0.000000 0.000000 0.000000 -2.488549 -0.110782 -0.582957 -6.131986 3.418783 10.355832 25.207397 4.661278 1.865509 -20.263628 4.206949 -13.422455 2.528942 0.681805 -1.187285 0.000000 0.000000 0.000000 -1.952188 0.184954 -0.699224 2.041384 1.201352 -4.460173 20.296814 0.918731 -2.192276 -21.129901 -1.592065 4.416811 3.907765 -0.117798 0.282817 0.000000 0.000000 0.000000 -1.536390 -1.562663 -1.041688 0.435942 -0.787724 0.399234 -0.864730 -0.275079 0.544070 1.132236 0.261569 -0.012728 0.000000 0.000000 0.000000 -1.451038 -0.049189 0.524380 -0.388994 0.970832 -1.142601 3.660625 -2.304553 2.313741 0.000000 0.000000 0.000000 -1.481028 0.189106 0.224523 1.384203 -11.062842 -10.712759 -2.805523 0.910301 -1.696636 20.391333 -21.833468 -65.654353 -1.014676 -20.098875 0.459449 0.000000 0.000000 0.000000 -0.972754 0.130007 0.397955 1.755824 5.953021 11.045755 -0.275278 3.440724 -2.075930 6.940822 24.645949 65.167989 0.782427 16.665260 0.597436 0.000000 0.000000 0.000000 
0.008437 32.769829 0.511391 0.000000 0.000000 0.000000 -2.519958 -0.327471 -0.562047 -6.466422 3.802204 9.916607 25.086696 5.283057 2.015153 -20.150299 4.134598 -13.078882 2.516335 0.749459 -0.870664 0.000000 0.000000 0.000000 -1.695872 0.196006 -0.680749 2.041255 0.991033 -4.761817 19.854588 1.436170 -2.110762 -21.838186 -1.266130 3.903198 3.505455 -0.012826 -0.017722 0.000000 0.000000 0.000000 -1.296575 -1.629599 -1.110880 0.536229 -0.719873 0.529604 -0.698784 -0.220069 0.489371 1.003776 0.095617 -0.101498 0.000000 0.000000 0.000000 -1.308979 -0.024608 0.488007 -0.408248 1.106112 -1.227658 2.963308 -2.273802 2.411429 0.000000 0.000000 0.000000 -1.385012 0.234879 0.161885 1.371789 -11.261473 -10.816060 -2.869726 1.052876 -1.825993 20.319022 -21.926898 -65.317263 -0.953104 -20.521148 0.322206 0.000000 0.000000 0.000000 -0.853602 0.142619 0.333873 1.856098 6.079176 11.025060 -0.097461 3.540800 -2.153323 7.179237 25.294315 64.561154 0.827995 16.977694 0.576236 0.000000 0.000000 0.000000 
0.059698 32.742504 0.476412 0.000000 0.000000 0.000000 -2.321494 -0.635926 -0.578297 -7.056553 4.209008 9.539151 25.209656 5.974018 2.195362 -20.209029 4.068570 -13.005011 2.481044 0.785057 -0.442719 0.000000 0.000000 0.000000 -1.282324 0.056333 -0.700556 1.524472 0.862441 -4.982874 19.576010 2.310178 -1.904568 -22.227346 -1.125679 4.290196 2.286298 0.027239 -0.457602 0.000000 0.000000 0.000000 -0.983896 -1.721888 -1.262458 0.710324 -0.701805 0.604482 -0.509994 -0.153920 0.423881 0.890506 -0.067511 -0.045183 0.000000 0.000000 0.000000 -1.122772 0.023538 0.445798 -0.487001 1.184443 -1.290745 2.088991 -2.293593 2.677287 0.000000 0.000000 0.000000 -1.247059 0.291844 0.103378 1.339817 -11.519634 -10.864979 -2.819164 1.076261 -2.080821 20.202212 -22.072006 -64.767863 -0.879185 -20.996415 0.188340 0.000000 0.000000 0.000000 -0.702165 0.175830 0.272128 1.958158 6.282025 10.970019 0.090247 3.641588 -2.221698 7.203549 26.003652 64.033119 0.819275 17.326993 0.567769 0.000000 0.000000 0.000000 
0.100030 32.702446 0.384121 0.000000 0.000000 0.000000 -1.853462 -1.233962 -0.704339 -7.884479 4.441170 9.444857 25.731752 6.734589 2.417932 -20.370121 4.134821 -13.271096 2.378989 0.774163 0.050982 0.000000 0.000000 0.000000 -0.774660 -0.462479 -0.831240 0.495898 0.858458 -4.981604 19.468211 3.184755 -1.573893 -22.216676 -1.287927 5.161365 0.967538 -0.054246 -0.744022 0.000000 0.000000 0.000000 -0.531736 -1.875335 -1.515455 0.912686 -0.711338 0.603786 -0.292677 -0.085976 0.363674 0.858739 -0.104293 0.037835 0.000000 0.000000 0.000000 -0.890327 0.083368 0.397229 -0.625664 1.162744 -1.298763 1.087492 -2.432049 3.167113 0.000000 0.000000 0.000000 -1.052815 0.347054 0.057051 1.295526 -11.844514 -10.842249 -2.594664 0.999325 -2.294011 19.819534 -22.168487 -64.097173 -0.757624 -21.492939 0.092131 0.000000 0.000000 0.000000 -0.510435 0.217541 0.219355 2.045601 6.603086 10.905359 0.268552 3.655468 -2.244424 6.985188 26.804584 63.629339 0.763347 17.691059 0.560220 0.000000 0.000000 0.000000 
0.127289 32.663017 0.187138 0.000000 0.000000 0.000000 -1.223244 -1.999107 -1.016257 -9.049841 4.335293 9.853283 26.740028 7.566719 2.653613 -20.615966 4.426588 -13.815330 2.230194 0.717971 0.545845 0.000000 0.000000 0.000000 -0.278575 -1.364254 -1.165768 -1.077087 1.039865 -4.594570 19.599844 3.750746 -1.193266 -22.099395 -1.768906 6.033252 0.557940 -0.287737 -0.666020 0.000000 0.000000 0.000000 0.103880 -2.256864 -1.908066 1.144297 -0.713989 0.528102 -0.049618 -0.032765 0.312650 0.924609 -0.077438 0.087353 0.000000 0.000000 0.000000 -0.609219 0.141662 0.329764 -0.778347 1.041513 -1.198751 0.018095 -2.709636 3.909331 0.000000 0.000000 0.000000 -0.788533 0.397466 0.017159 1.254517 -12.240943 -10.736222 -2.313397 0.957066 -2.445352 19.001098 -22.011574 -63.418388 -0.603375 -22.010457 0.039963 0.000000 0.000000 0.000000 -0.261844 0.263636 0.170069 2.102104 7.067997 10.827752 0.442603 3.664626 -2.261712 6.566349 27.743245 63.280876 0.671259 18.160134 0.552925 0.000000 0.000000 0.000000 
0.136544 32.589554 -0.074980 0.000000 0.000000 0.000000 -0.536113 -2.945610 -1.561789 -10.532342 3.793939 10.883661 28.288538 8.348420 2.831867 -20.871639 4.960192 -14.716609 2.090076 0.629985 0.964478 0.000000 0.000000 0.000000 0.196577 -2.580522 -1.739105 -3.214792 1.453499 -3.747839 20.297937 3.841450 -0.752789 -21.807443 -2.403914 6.742999 1.151198 -0.583346 -0.279514 0.000000 0.000000 0.000000 0.879120 -3.029377 -2.427379 1.431912 -0.693081 0.383524 0.231069 0.013752 0.254840 1.042121 -0.055226 0.143591 0.000000 0.000000 0.000000 -0.283065 0.195754 0.226275 -0.880366 0.828035 -0.952203 -1.037244 -3.117842 4.878334 0.000000 0.000000 0.000000 -0.459431 0.438075 -0.040240 1.227945 -12.707523 -10.580476 -2.106553 1.006990 -2.557765 17.819805 -21.499106 -62.787723 -0.442455 -22.655082 0.018118 0.000000 0.000000 0.000000 0.043700 0.307237 0.098287 2.129115 7.693161 10.756454 0.620045 3.684016 -2.280159 6.033264 28.808433 62.830050 0.576969 18.800654 0.547290 0.000000 0.000000 0.000000 
